<svg width="1em" height="1em" viewBox="0 0 32 32" fill="none" xmlns="http://www.w3.org/2000/svg">
  <path fill-rule="evenodd" clip-rule="evenodd" d="M27.682 2v7.036a2.53 2.53 0 0 1 1.877 1.527 2.55 2.55 0 0 1-.546 2.76 2.52 2.52 0 0 1-2.753.552 2.53 2.53 0 0 1-1.132-.936 2.55 2.55 0 0 1-.424-1.407h1.5a1.04 1.04 0 0 0 .634.959 1.01 1.01 0 0 0 1.11-.223 1.04 1.04 0 0 0 .223-1.135 1.03 1.03 0 0 0-.378-.465 1 1 0 0 0-.566-.173h-.312l-.733-.74V2zm-23.374.441h1.326l.207.172.002.002.013.01.06.047q.084.066.251.182c.222.153.545.36.942.565.784.407 1.811.79 2.9.809a11.3 11.3 0 0 1 3.628-.595h.945c3.322 0 6.285 1.578 8.223 4.174l.15.2v1.11l-.543.157c-.938.27-1.83.75-2.5 1.178l-.248.161a15 15 0 0 0 2.339.473l.656.082v1.269l-.217.219c-1.236 1.246-2.41 2.06-3.698 2.555-1.283.492-2.626.645-4.162.645h-.946c-2.111 0-3.977 1.974-3.977 4.612 0 2.464 1.628 4.349 3.563 4.586 1.416-2.28 3.893-4.144 6.796-4.144h.75v1.45l-.333.221h-.001l-.001.002-.01.007q-.018.01-.055.04a5.6 5.6 0 0 0-.897.852c-.5.596-.948 1.399-.948 2.348s.448 1.751.947 2.348a5.6 5.6 0 0 0 .898.852l.055.04.01.007.002.001.333.222v1.45h-.75c-2.918 0-5.404-1.883-6.817-4.179a11.35 11.35 0 0 1-7.618-3.354 11.52 11.52 0 0 1-3.333-8.11c0-4.224.449-7.26.905-9.253.228-.997.458-1.733.634-2.226a10 10 0 0 1 .302-.75l.006-.012.002-.005.001-.001s0-.002.673.331L4.1 2.858zm.93 1.593-.036.099a18 18 0 0 0-.585 2.056 30 30 0 0 0-.464 2.566A11.45 11.45 0 0 1 7.71 5.308a9.6 9.6 0 0 1-1.291-.557 10 10 0 0 1-1.18-.717M3.75 15.106c0 2.647 1.043 5.185 2.898 7.055a9.9 9.9 0 0 0 2.52 1.842 6.6 6.6 0 0 1-1.009-3.535c0-3.283 2.365-6.112 5.477-6.112h.946c1.44 0 2.58-.144 3.625-.546.78-.299 1.537-.752 2.342-1.44a14 14 0 0 1-1.524-.383 9 9 0 0 1-.918-.342l-.054-.026-.017-.008-.006-.003-.002-.001h-.001s-.001-.001.337-.67l-.337.67-.413-.209v-1.11l.267-.224.483.574-.483-.574h.001l.002-.002.006-.005.019-.016.067-.054q.087-.07.247-.19c.21-.159.513-.375.883-.61a12.5 12.5 0 0 1 2.032-1.058c-1.655-1.887-3.982-2.996-6.556-2.996h-.946a9.8 9.8 0 0 0-3.255.553 9.9 9.9 0 0 0-4.803 3.642 10.04 10.04 0 0 0-1.828 5.778m14.381 13.798c-.563-.738-1.108-1.785-1.108-3.074 0-1.29.545-2.336 1.108-3.075-1.474.545-2.76 1.685-3.625 3.075.866 1.39 2.151 2.53 3.625 3.074M16.75 6.766v2.383h-1.5V6.766z" fill="currentColor"/>
</svg>
