<svg width="1em" height="1em" viewBox="0 0 28 29" fill="none" xmlns="http://www.w3.org/2000/svg">
  <path d="M27.877 21.929 21.91 11.858A1.74 1.74 0 0 0 20.404 11a1.73 1.73 0 0 0-1.505.857l-1.711 2.887a.44.44 0 0 0 0 .445l2.931 4.973a.89.89 0 0 1-.206 1.154.876.876 0 0 1-1.291-.247l-7.49-12.707a1.75 1.75 0 0 0-3.016 0L.121 21.93a.875.875 0 0 0 .11 1.041.9.9 0 0 0 .669.278h26.2a.9.9 0 0 0 .666-.279.875.875 0 0 0 .111-1.042m-20.83-8.304L9.625 9.25l2.578 4.375zm8.265-7.437a2.625 2.625 0 1 1 5.25 0 2.625 2.625 0 0 1-5.25 0" fill="currentColor"/>
</svg>
