<svg width="1em" height="1em" viewBox="0 0 21 20" fill="none" xmlns="http://www.w3.org/2000/svg">
  <path d="m20.318 10.442-1.876 1.875a.623.623 0 0 1-.884 0l-1.875-1.875a.625.625 0 0 1 .884-.884l.808.808V10A6.874 6.874 0 0 0 4.914 5.99a.625.625 0 1 1-1.016-.73A8.125 8.125 0 0 1 18.625 10v.366l.808-.808a.625.625 0 1 1 .884.884M17.1 14.74A8.125 8.125 0 0 1 2.375 10v-.366l-.807.808a.626.626 0 0 1-.885-.884l1.875-1.875a.625.625 0 0 1 .885 0l1.875 1.875a.625.625 0 0 1-.885.884l-.808-.808V10a6.85 6.85 0 0 0 1.738 4.563 6.2 6.2 0 0 1 2.817-2.246 3.75 3.75 0 1 1 4.64 0 6.2 6.2 0 0 1 2.82 2.249q.236-.267.445-.556a.626.626 0 0 1 1.016.73zm-6.6-2.864a2.5 2.5 0 1 0 0-5 2.5 2.5 0 0 0 0 5m0 5a6.9 6.9 0 0 0 4.213-1.445 5 5 0 0 0-8.425 0 6.84 6.84 0 0 0 4.212 1.445" fill="currentColor"/>
</svg>
