<svg width="1em" height="1em" viewBox="0 0 21 20" fill="none" xmlns="http://www.w3.org/2000/svg">
  <g fill="currentColor">
    <path d="M10.5 18.967c-.908 0-1.808-.267-2.516-.792L4.401 15.5c-.95-.708-1.692-2.191-1.692-3.367v-6.2c0-1.283.942-2.65 2.15-3.1l4.158-1.558c.825-.308 2.125-.308 2.95 0l4.159 1.559c1.208.45 2.15 1.816 2.15 3.1v6.191c0 1.184-.742 2.659-1.692 3.367l-3.583 2.675c-.692.533-1.592.8-2.5.8M9.46 2.45 5.301 4.01c-.709.266-1.334 1.166-1.334 1.933v6.192c0 .791.559 1.9 1.184 2.366l3.583 2.675c.958.717 2.575.717 3.542 0l3.583-2.675c.633-.475 1.183-1.575 1.183-2.367v-6.2c0-.758-.625-1.658-1.333-1.933l-4.158-1.558c-.567-.2-1.534-.2-2.092.008"/>
    <path d="M9.383 11.859a.62.62 0 0 1-.442-.184l-1.342-1.341a.63.63 0 0 1 0-.884.63.63 0 0 1 .884 0l.9.9 3.141-3.141a.63.63 0 0 1 .884 0 .63.63 0 0 1 0 .883l-3.584 3.583a.62.62 0 0 1-.441.184"/>
  </g>
</svg>
