<svg width="1em" height="1em" viewBox="0 0 21 20" fill="none" xmlns="http://www.w3.org/2000/svg">
  <path d="M10.5 1.875A8.125 8.125 0 1 0 18.625 10 8.133 8.133 0 0 0 10.5 1.875m0 15A6.875 6.875 0 1 1 17.375 10a6.883 6.883 0 0 1-6.875 6.875M6.75 8.438a.938.938 0 1 1 1.875 0 .938.938 0 0 1-1.875 0m7.5 0a.938.938 0 1 1-1.875 0 .938.938 0 0 1 1.875 0m-.084 3.75c-.803 1.39-2.14 2.187-3.666 2.187s-2.862-.797-3.666-2.187a.625.625 0 1 1 1.082-.626c.583 1.01 1.5 1.563 2.584 1.563s2-.555 2.584-1.562a.625.625 0 1 1 1.082.624" fill="currentColor"/>
</svg>
